<?xml version="1.0" encoding="utf-8"?>
<!-- Generator: Adobe Illustrator 15.0.0, SVG Export Plug-In . SVG Version: 6.00 Build 0)  -->
<!DOCTYPE svg PUBLIC "-//W3C//DTD SVG 1.1//EN" "http://www.w3.org/Graphics/SVG/1.1/DTD/svg11.dtd">
<svg version="1.1" id="Capa_1" xmlns="http://www.w3.org/2000/svg" xmlns:xlink="http://www.w3.org/1999/xlink" x="0px" y="0px"
	 width="176px" height="208px" viewBox="0 0 176 208" enable-background="new 0 0 176 208" xml:space="preserve">
<path fill="#E7ECED" d="M61.809,153.984l-26.257,14.322c-1.541,0.84-2.925,1.873-4.214,2.998C46.646,184.213,66.408,192,88,192
	c21.432,0,41.068-7.671,56.334-20.402c-1.408-1.189-2.936-2.258-4.63-3.102l-28.116-14.057c-3.633-1.816-5.928-5.529-5.928-9.591
	v-11.032c0.79-0.899,1.693-2.055,2.66-3.42c3.832-5.412,6.73-11.367,8.74-17.613c3.605-1.112,6.262-4.443,6.262-8.401V92.606
	c0-2.59-1.152-4.905-2.941-6.525V69.059c0,0,3.496-26.49-32.377-26.49c-35.874,0-32.377,26.49-32.377,26.49v17.022
	c-1.793,1.621-2.942,3.935-2.942,6.525v11.775c0,3.102,1.631,5.831,4.071,7.409c2.942,12.808,10.646,22.025,10.646,22.025v10.76
	C67.398,148.494,65.253,152.104,61.809,153.984z"/>
<g>
	<path fill="#00967D" d="M89.504,16.013c-48.592-0.83-88.661,37.89-89.491,86.482c-0.472,27.552,11.809,52.315,31.361,68.783
		c1.278-1.116,2.65-2.138,4.174-2.969l26.257-14.322c3.444-1.88,5.589-5.489,5.589-9.415v-10.759c0,0-7.708-9.218-10.646-22.026
		c-2.438-1.577-4.071-4.304-4.071-7.409V92.603c0-2.59,1.152-4.905,2.942-6.525V69.056c0,0-3.497-26.49,32.377-26.49
		c35.875,0,32.377,26.49,32.377,26.49v17.022c1.794,1.62,2.942,3.935,2.942,6.525v11.775c0,3.958-2.656,7.29-6.264,8.402
		c-2.008,6.246-4.908,12.2-8.74,17.613c-0.966,1.364-1.869,2.521-2.659,3.42v11.032c0,4.061,2.294,7.777,5.927,9.59l28.117,14.057
		c1.688,0.844,3.211,1.91,4.616,3.096c18.962-15.814,31.212-39.458,31.667-66.084C176.816,56.912,138.1,16.843,89.504,16.013z"/>
</g>
</svg>
